<?xml version="1.0" encoding="UTF-8"?>
<svg fill="#FFFFFF" width="100pt" height="100pt" version="1.1" viewBox="0 0 100 100" xmlns="http://www.w3.org/2000/svg">
 <path d="m83.602 16.398c-18.5-18.5-48.699-18.5-67.199 0s-18.5 48.699 0 67.199 48.699 18.5 67.199 0c18.5-18.496 18.5-48.699 0-67.199zm6.7969 47l-15.199-5.1016c1.8008-5.3984 1.8008-11.301 0-16.699l15.199-5.1016c2.8008 8.8047 2.8008 18.203 0 26.902zm-80.797-26.797l15.199 5.1016c-1.8008 5.3984-1.8008 11.301 0 16.699l-15.199 5.1016c-2.8008-8.8047-2.8008-18.203 0-26.902zm25.199 28.598c-8.3984-8.3984-8.3984-22.102 0-30.5 8.3984-8.3984 22.102-8.3984 30.5 0 8.3984 8.3984 8.3984 22.102 0 30.5-8.5 8.4023-22.102 8.4023-30.5 0zm28.598-55.598l-5.1016 15.199c-5.3984-1.8008-11.301-1.8008-16.699 0l-5.1016-15.199c8.8047-2.8008 18.203-2.8008 26.902 0zm-26.797 80.797l5.1016-15.199c5.3984 1.8008 11.301 1.8008 16.699 0l5.1016 15.199c-8.8047 2.8008-18.203 2.8008-26.902 0z"/>
</svg>
